<?xml version="1.0" encoding="UTF-8"?>
<svg id="Layer_2" data-name="Layer 2" xmlns="http://www.w3.org/2000/svg" viewBox="0 0 76.06 94.25">
  <defs>
    <style>
      .cls-1 {
        fill: #f4f4f4;
      }
    </style>
  </defs>
  <g id="Layer_1-2" data-name="Layer 1">
    <path class="cls-1" d="m38.25,0C17.21-.12,0,17.7,0,38.74v55.51c8-4.41,15.32-9.89,21.71-16.29.17-.17.35-.35.52-.53,6.68-6.78,6.46-17.82,0-24.82-3.53-3.83-5.69-8.94-5.69-14.57,0-12.7,11.03-22.81,24.03-21.33,9.67,1.11,17.5,8.78,18.76,18.43.9,6.89-1.47,13.25-5.77,17.75-6.53,6.82-6.5,17.61.1,24.35.23.24.46.47.7.7,6.39,6.4,13.71,11.88,21.71,16.29v-56.22c0-10.51-4.26-20.01-11.15-26.89C58.09,4.31,48.66.06,38.25,0Z"/>
  </g>
</svg>