<?xml version="1.0" encoding="UTF-8"?>
<svg id="Layer_2" data-name="Layer 2" xmlns="http://www.w3.org/2000/svg" viewBox="0 0 115.14 137.87">
  <defs>
    <style>
      .cls-1 {
        fill: #13121e;
      }

      .cls-2 {
        fill: #7df9ff;
      }
    </style>
  </defs>
  <g id="Layer_1-2" data-name="Layer 1">
    <g>
      <path class="cls-1" d="m57.57,0h0C89.35,0,115.14,25.8,115.14,57.57v80.3H0V57.57C0,25.8,25.8,0,57.57,0Z"/>
      <path class="cls-2" d="m57.83,13.59c-24.71-.14-44.92,20.79-44.92,45.5v65.19c9.39-5.18,17.99-11.61,25.49-19.13.2-.2.41-.41.61-.62,7.84-7.96,7.59-20.93,0-29.14-4.15-4.5-6.68-10.5-6.68-17.11,0-14.92,12.95-26.79,28.22-25.04,11.36,1.3,20.55,10.31,22.03,21.65,1.05,8.1-1.73,15.57-6.78,20.84-7.67,8.01-7.64,20.68.12,28.6.27.28.54.55.82.83,7.5,7.52,16.1,13.96,25.49,19.13V58.26c0-12.34-5-23.5-13.09-31.57-8.01-8.03-19.1-13.02-31.32-13.09Z"/>
    </g>
  </g>
</svg>