<?xml version="1.0" encoding="UTF-8"?>
<svg id="Layer_2" data-name="Layer 2" xmlns="http://www.w3.org/2000/svg" viewBox="0 0 570.65 570.65">
  <defs>
    <style>
      .cls-1 {
        fill: #fff;
      }
    </style>
  </defs>
  <g id="Layer_1-2" data-name="Layer 1">
    <g>
      <path class="cls-1" d="M570.65,285.32l-28.96-21.63c-1.1-.82-24.48-18.11-59.59-31.09,23.92-28.8,35.52-55.46,36.06-56.72l14.26-33.22-35.9-4.25c-.88-.11-8.95-1.01-21.44-1.01-15.52,0-30.83,1.29-45.7,3.85,6.31-36.87,3.02-65.76,2.86-67.13l-4.25-35.89-33.21,14.26c-1.27,.54-27.93,12.14-56.73,36.06-12.98-35.11-30.27-58.49-31.09-59.59L285.33,0l-21.63,28.96c-.83,1.1-18.12,24.48-31.1,59.59-28.8-23.93-55.46-35.52-56.72-36.06l-33.22-14.26-4.25,35.89c-.16,1.37-3.45,30.25,2.86,67.13-14.87-2.56-30.18-3.85-45.7-3.85-12.49,0-20.56,.9-21.45,1.01l-35.89,4.25,14.26,33.22c.55,1.26,12.17,27.95,36.06,56.72-35.09,12.97-58.48,30.27-59.59,31.09L0,285.32l28.96,21.64c1.11,.82,24.5,18.12,59.59,31.09-23.9,28.78-35.51,55.46-36.06,56.72l-14.26,33.22,35.9,4.25c.88,.1,8.92,1.01,21.44,1.01,15.52,0,30.83-1.29,45.7-3.85-6.31,36.88-3.02,65.76-2.86,67.13l4.25,35.89,33.22-14.26c1.26-.55,27.94-12.16,56.72-36.06,12.97,35.09,30.27,58.48,31.09,59.59l21.64,28.96,21.63-28.96c.82-1.11,18.12-24.5,31.09-59.59,28.77,23.89,55.46,35.51,56.72,36.06l33.22,14.26,4.25-35.89c.16-1.37,3.45-30.25-2.86-67.13,14.87,2.56,30.19,3.85,45.7,3.85,12.49,0,20.56-.91,21.45-1.01l35.89-4.25-14.26-33.21c-.54-1.27-12.13-27.93-36.06-56.73,35.11-12.98,58.49-30.27,59.59-31.09l28.96-21.64Zm-130.12,36.58l-6.99-8.86c-1.92,.33-3.86,.63-5.82,.9l-5.6,.77-16.47,2.26-1.47,.2,1.17,.91,13.13,10.2,4.46,3.46c1.56,1.21,3.09,2.44,4.59,3.7l10.5-4.19c37.69,33.13,55.32,74.18,55.32,74.18,0,0-6.94,.82-18.27,.82-17.31,0-44.9-1.93-73.64-11.65l-1.62-11.17c-1.83-.67-3.66-1.38-5.49-2.13l-5.23-2.13-15.39-6.28-1.38-.56,.56,1.38,6.28,15.39,2.13,5.23c.75,1.83,1.45,3.66,2.13,5.49l11.17,1.62c16.09,47.53,10.83,91.91,10.83,91.91,0,0-41.05-17.63-74.18-55.32l4.18-10.5c-1.25-1.5-2.48-3.03-3.69-4.59l-3.46-4.46-10.2-13.13-.91-1.18-.2,1.48-2.26,16.47-.77,5.6c-.27,1.96-.57,3.9-.9,5.82l8.86,6.99c-9.83,49.2-36.57,85-36.57,85,0,0-26.74-35.8-36.58-85l8.86-6.99c-.33-1.92-.63-3.86-.9-5.82l-.77-5.6-2.26-16.47-.2-1.48-.91,1.18-10.2,13.13-3.46,4.46c-1.21,1.56-2.44,3.09-3.7,4.59l4.19,10.5c-33.13,37.69-74.18,55.32-74.18,55.32,0,0-5.25-44.37,10.83-91.91l11.17-1.62c.67-1.83,1.38-3.66,2.13-5.49l2.13-5.23,6.28-15.39,.56-1.38-1.38,.56-15.39,6.28-5.23,2.13c-1.83,.75-3.66,1.46-5.49,2.13l-1.62,11.17c-28.74,9.72-56.33,11.65-73.64,11.65-11.33,0-18.27-.82-18.27-.82,0,0,17.63-41.05,55.32-74.18l10.5,4.19c1.5-1.26,3.03-2.49,4.59-3.7l4.46-3.46,13.14-10.2,1.17-.91-1.48-.2-16.47-2.26-5.59-.77c-1.96-.27-3.9-.57-5.82-.9l-7,8.86c-49.2-9.84-85-36.58-85-36.58,0,0,35.8-26.74,85-36.57l7,8.86c1.92-.33,3.86-.63,5.82-.9l5.59-.77,16.47-2.26,1.48-.2-1.18-.91-13.13-10.2-4.46-3.46c-1.56-1.21-3.09-2.44-4.59-3.7l-10.5,4.19c-37.69-33.13-55.32-74.18-55.32-74.18,0,0,6.94-.82,18.27-.82,17.32,0,44.9,1.93,73.64,11.65l1.62,11.17c1.83,.67,3.66,1.38,5.49,2.13l5.23,2.13,15.39,6.28,1.38,.56-.56-1.38-6.28-15.39-2.13-5.23c-.75-1.83-1.45-3.66-2.13-5.49l-11.17-1.62c-16.08-47.54-10.83-91.91-10.83-91.91,0,0,41.05,17.63,74.19,55.32l-4.19,10.5c1.25,1.5,2.48,3.03,3.69,4.59l3.46,4.46,10.2,13.13,.91,1.17,.2-1.47,2.26-16.47,.77-5.6c.27-1.96,.57-3.9,.9-5.82l-8.86-6.99c9.84-49.2,36.58-85,36.58-85,0,0,26.74,35.8,36.57,85l-8.86,6.99c.33,1.92,.63,3.86,.9,5.82l.77,5.6,2.26,16.47,.2,1.47,.91-1.17,10.2-13.13,3.46-4.46c1.21-1.56,2.44-3.09,3.7-4.59l-4.19-10.5c33.13-37.69,74.18-55.32,74.18-55.32,0,0,5.26,44.38-10.83,91.91l-11.17,1.62c-.68,1.83-1.38,3.66-2.13,5.49l-2.13,5.23-6.28,15.39-.56,1.38,1.38-.56,15.39-6.28,5.23-2.13c1.83-.75,3.66-1.46,5.49-2.13l1.62-11.17c28.74-9.73,56.33-11.65,73.64-11.65,11.33,0,18.27,.82,18.27,.82,0,0-17.63,41.05-55.32,74.18l-10.5-4.18c-1.5,1.25-3.03,2.48-4.59,3.69l-4.46,3.46-13.13,10.2-1.17,.91,1.47,.2,16.47,2.26,5.6,.77c1.96,.27,3.9,.57,5.82,.9l6.99-8.86c49.2,9.83,85,36.57,85,36.57,0,0-35.8,26.74-85,36.58Z"/>
      <path class="cls-1" d="M553.94,285.32l-18.24-13.62c-1.46-1.09-29.77-21.98-71.07-34.42,29.54-31.42,43.62-63.67,44.34-65.35l8.98-20.91-22.6-2.68c-.32-.04-8.08-.94-20.27-.94-15.33,0-36.01,1.36-58.49,6.65,9.86-41.97,5.94-76.93,5.72-78.75l-2.68-22.6-20.91,8.98c-1.68,.72-33.93,14.8-65.35,44.34-12.44-41.3-33.33-69.61-34.42-71.07l-13.62-18.24-13.62,18.24c-1.1,1.46-21.99,29.77-34.43,71.07-31.42-29.54-63.66-43.62-65.35-44.34l-20.91-8.98-2.68,22.6c-.21,1.82-4.14,36.78,5.72,78.75-22.48-5.29-43.16-6.65-58.49-6.65-12.2,0-19.95,.9-20.27,.94l-22.6,2.68,8.98,20.91c.72,1.68,14.8,33.93,44.34,65.35-41.3,12.44-69.6,33.33-71.07,34.42l-18.24,13.62,18.24,13.62c1.47,1.1,29.78,21.99,71.07,34.43-29.54,31.42-43.62,63.66-44.34,65.35l-8.98,20.91,22.6,2.68c.33,.04,8.08,.94,20.27,.94,15.33,0,36.01-1.36,58.49-6.66-9.86,41.98-5.93,76.94-5.72,78.76l2.68,22.6,20.91-8.98c1.69-.72,33.93-14.8,65.35-44.34,12.44,41.3,33.33,69.6,34.43,71.07l13.62,18.24,13.62-18.24c1.09-1.47,21.98-29.77,34.42-71.07,31.42,29.54,63.67,43.62,65.35,44.34l20.91,8.98,2.68-22.6c.22-1.82,4.14-36.78-5.72-78.75,22.48,5.29,43.16,6.65,58.49,6.65,12.2,0,19.95-.9,20.27-.94l22.6-2.68-8.98-20.91c-.72-1.69-14.8-33.93-44.34-65.35,41.3-12.44,69.61-33.33,71.07-34.43l18.24-13.62Zm-113.41,36.58c-3.67,.74-7.42,1.38-11.23,1.91-.07,.01-.15,.02-.22,.03,.06,.04,.11,.09,.17,.14,3.04,2.36,5.97,4.79,8.78,7.27,37.69,33.13,55.32,74.18,55.32,74.18,0,0-6.94,.82-18.27,.82-17.31,0-44.9-1.93-73.64-11.65-3.55-1.19-7.11-2.51-10.68-3.96-.07-.03-.13-.05-.2-.08,.03,.07,.05,.13,.08,.2,1.45,3.57,2.77,7.13,3.96,10.68,16.09,47.53,10.83,91.91,10.83,91.91,0,0-41.05-17.63-74.18-55.32-2.48-2.81-4.9-5.73-7.27-8.77-.05-.06-.09-.12-.14-.18l-.03,.21c-.53,3.82-1.17,7.57-1.91,11.24-9.83,49.2-36.57,85-36.57,85,0,0-26.74-35.8-36.58-85-.74-3.67-1.38-7.42-1.91-11.24l-.03-.21c-.04,.06-.09,.11-.13,.17-2.37,3.04-4.8,5.97-7.28,8.78-33.13,37.69-74.18,55.32-74.18,55.32,0,0-5.25-44.37,10.83-91.91,1.19-3.55,2.51-7.11,3.96-10.68,.03-.07,.05-.13,.08-.2-.07,.03-.13,.05-.2,.08-3.57,1.45-7.13,2.77-10.68,3.96-28.74,9.72-56.33,11.65-73.64,11.65-11.33,0-18.27-.82-18.27-.82,0,0,17.63-41.05,55.32-74.18,2.81-2.48,5.73-4.9,8.77-7.27,.06-.05,.12-.09,.18-.14-.07-.01-.14-.02-.21-.03-3.82-.53-7.57-1.17-11.24-1.91-49.2-9.84-85-36.58-85-36.58,0,0,35.8-26.74,85-36.57,3.67-.74,7.42-1.38,11.24-1.91,.07-.01,.14-.02,.21-.03-.06-.04-.11-.09-.17-.13-3.04-2.37-5.97-4.8-8.78-7.28-37.69-33.13-55.32-74.18-55.32-74.18,0,0,6.94-.82,18.27-.82,17.32,0,44.9,1.93,73.64,11.65,3.55,1.19,7.11,2.51,10.68,3.96,.07,.03,.13,.05,.2,.08-.03-.07-.05-.13-.08-.2-1.45-3.57-2.77-7.13-3.96-10.68-16.08-47.54-10.83-91.91-10.83-91.91,0,0,41.05,17.63,74.19,55.32,2.47,2.81,4.9,5.74,7.26,8.78,.05,.06,.1,.11,.14,.17,.01-.07,.02-.15,.03-.22,.53-3.81,1.17-7.56,1.91-11.23,9.84-49.2,36.58-85,36.58-85,0,0,26.74,35.8,36.57,85,.74,3.67,1.38,7.42,1.91,11.24,.01,.07,.02,.14,.03,.21,.05-.06,.09-.12,.14-.18,2.37-3.04,4.79-5.96,7.27-8.77,33.13-37.69,74.18-55.32,74.18-55.32,0,0,5.26,44.38-10.83,91.91-1.19,3.55-2.51,7.11-3.96,10.68-.03,.07-.05,.13-.08,.2,.07-.03,.13-.05,.2-.08,3.57-1.45,7.13-2.77,10.68-3.96,28.74-9.73,56.33-11.65,73.64-11.65,11.33,0,18.27,.82,18.27,.82,0,0-17.63,41.05-55.32,74.18-2.81,2.48-5.73,4.91-8.77,7.27-.06,.05-.12,.09-.18,.14,.07,.01,.14,.02,.21,.03,3.82,.53,7.57,1.17,11.24,1.91,49.2,9.83,85,36.57,85,36.57,0,0-35.8,26.74-85,36.58Z"/>
      <path class="cls-1" d="M433.54,313.04l-8.17-10.36c-.83-1.05-6.87-8.55-17.21-17.36,10.34-8.8,16.39-16.3,17.21-17.35l8.17-10.36,6.99-8.86,5-6.35-7.5-3-10.5-4.18-12.24-4.89c-1.24-.49-10.21-3.97-23.58-6.43,4.55-12.8,6.03-22.31,6.22-23.63l1.89-13.05,1.62-11.17,1.16-8-8,1.16-11.17,1.62-13.05,1.89c-1.31,.19-10.83,1.67-23.63,6.22-2.46-13.38-5.94-22.35-6.43-23.58l-4.88-12.24-4.19-10.5-3-7.5-6.35,5-8.86,6.99-10.35,8.16c-1.04,.82-8.53,6.84-17.36,17.21-8.83-10.37-16.32-16.39-17.36-17.2l-10.36-8.17-8.86-6.99-6.35-5-2.99,7.5-4.19,10.5-4.89,12.25c-.49,1.24-3.96,10.22-6.42,23.57-12.81-4.55-22.32-6.03-23.64-6.22l-13.05-1.89-11.17-1.62-8-1.16,1.16,8,1.62,11.17,1.89,13.05c.19,1.32,1.67,10.83,6.22,23.63-13.38,2.46-22.35,5.94-23.58,6.43l-12.24,4.88-10.5,4.19-7.5,3,5,6.35,7,8.86,8.16,10.36c.83,1.05,6.87,8.55,17.21,17.35-10.34,8.81-16.38,16.31-17.21,17.36l-8.16,10.36-7,8.86-5,6.35,7.5,3,10.5,4.19,12.24,4.88c1.24,.49,10.21,3.97,23.58,6.43-4.55,12.8-6.03,22.31-6.22,23.63l-1.89,13.05-1.62,11.17-1.16,8,8-1.16,11.17-1.62,13.05-1.89c1.32-.19,10.83-1.67,23.64-6.22,2.46,13.36,5.93,22.34,6.42,23.58l4.88,12.24,4.19,10.5,3,7.5,6.35-5,8.86-6.99,10.36-8.17c1.04-.82,8.54-6.85,17.36-17.21,8.81,10.36,16.31,16.39,17.35,17.21l10.36,8.17,8.86,6.99,6.35,5,3-7.5,4.18-10.5,4.89-12.24c.49-1.23,3.97-10.19,6.43-23.58,12.8,4.55,22.32,6.03,23.63,6.22l13.05,1.89,11.17,1.62,8,1.16-1.16-8-1.62-11.17-1.89-13.05c-.19-1.32-1.67-10.83-6.22-23.63,13.35-2.46,22.34-5.94,23.58-6.43l12.24-4.88,10.5-4.19,7.5-3-5-6.35-6.99-8.86Zm-27.26,4.69s-.32,.13-.93,.35c-3.94,1.43-20.09,6.82-39.98,6.82-4.15,0-8.46-.23-12.86-.79,15.52,20.46,20.31,43.78,21.2,48.78,.11,.64,.16,.98,.16,.98,0,0-.34-.05-.98-.16-5-.89-28.31-5.68-48.78-21.2,3.21,25.48-4.3,48.07-6.03,52.84-.22,.61-.35,.93-.35,.93,0,0-.27-.21-.76-.63-3.87-3.25-21.68-19.07-31.64-42.75-9.97,23.68-27.78,39.5-31.65,42.75-.49,.42-.76,.63-.76,.63,0,0-.13-.32-.35-.93-1.73-4.77-9.24-27.36-6.03-52.84-20.46,15.52-43.78,20.31-48.78,21.2-.64,.11-.98,.16-.98,.16,0,0,.05-.34,.16-.98,.89-5,5.68-28.32,21.2-48.78-4.4,.56-8.71,.79-12.86,.79-19.87,0-36.01-5.38-39.97-6.82-.62-.22-.94-.35-.94-.35,0,0,.21-.27,.63-.76,3.25-3.87,19.07-21.68,42.75-31.65-23.68-9.96-39.5-27.77-42.75-31.64-.42-.49-.63-.76-.63-.76,0,0,.32-.13,.93-.35,3.94-1.43,20.1-6.82,39.98-6.82,4.15,0,8.46,.23,12.86,.79-15.52-20.46-20.31-43.78-21.2-48.78-.11-.64-.16-.98-.16-.98,0,0,.34,.05,.98,.16,5,.89,28.32,5.68,48.78,21.2-3.21-25.48,4.3-48.07,6.03-52.84,.22-.61,.35-.93,.35-.93,0,0,.27,.21,.76,.63,3.87,3.25,21.68,19.07,31.65,42.75,9.96-23.68,27.77-39.5,31.64-42.75,.49-.42,.76-.63,.76-.63,0,0,.13,.32,.35,.93,1.73,4.77,9.24,27.36,6.03,52.84,20.47-15.52,43.78-20.31,48.78-21.2,.64-.11,.98-.16,.98-.16,0,0-.05,.34-.16,.98-.89,5-5.68,28.32-21.2,48.78,4.4-.56,8.71-.79,12.86-.79,19.88,0,36.04,5.39,39.98,6.82,.61,.22,.93,.35,.93,.35,0,0-.21,.27-.63,.76-3.25,3.87-19.07,21.68-42.75,31.64,23.68,9.97,39.5,27.78,42.75,31.65,.42,.49,.63,.76,.63,.76Z"/>
      <path class="cls-1" d="M422.12,314.71l-4.6-5.84c-.54-.69-9.84-12.33-25.61-23.55,15.77-11.21,25.07-22.85,25.61-23.54l4.6-5.84,7.17-9.1,.1-.12-.13-.05-10.78-4.3-6.9-2.75c-.7-.28-14.64-5.76-33.94-7.6,8.05-17.59,10.27-32.32,10.4-33.19l1.06-7.35,1.66-11.47,.02-.14-.14,.02-11.47,1.66-7.35,1.07c-.87,.12-15.61,2.34-33.2,10.39-1.83-19.25-7.26-33.13-7.59-33.94l-2.75-6.9-4.3-10.78-.05-.13-.12,.1-9.1,7.17-5.84,4.6c-.69,.55-12.33,9.84-23.54,25.61-11.21-15.77-22.86-25.06-23.55-25.61l-5.84-4.6-9.1-7.18-.11-.09-.06,.14-4.3,10.77-2.75,6.9c-.32,.81-5.76,14.69-7.59,33.94-17.59-8.05-32.32-10.27-33.19-10.39l-7.36-1.07-11.47-1.66-.14-.02,.02,.14,1.66,11.47,1.07,7.35c.12,.87,2.35,15.6,10.39,33.19-19.3,1.84-33.24,7.32-33.94,7.6l-6.9,2.75-10.77,4.31-.13,.05,.09,.11,7.17,9.1,4.6,5.84c.55,.69,9.84,12.33,25.61,23.54-15.77,11.22-25.06,22.86-25.61,23.55l-4.6,5.84-7.17,9.1-.09,.12,.12,.05,10.78,4.3,6.9,2.75c.7,.28,14.64,5.76,33.94,7.59-8.04,17.6-10.27,32.33-10.39,33.19l-1.07,7.36-1.66,11.47-.02,.14,.14-.02,11.47-1.66,7.36-1.07c.87-.12,15.6-2.34,33.19-10.39,1.83,19.25,7.27,33.12,7.59,33.94l2.75,6.9,4.31,10.77,.05,.13,.11-.09,9.1-7.17,5.84-4.6c.69-.55,12.34-9.84,23.55-25.61,11.21,15.77,22.85,25.06,23.54,25.61l5.84,4.6,9.1,7.17,.12,.09,.05-.12,4.3-10.78,2.75-6.9c.33-.82,5.76-14.69,7.59-33.94,17.59,8.05,32.33,10.27,33.2,10.39l7.35,1.07,11.47,1.66,.14,.02-.02-.14-1.66-11.47-1.06-7.36c-.13-.86-2.35-15.59-10.4-33.19,19.3-1.83,33.25-7.31,33.94-7.59l6.9-2.75,10.77-4.3,.14-.06-.09-.11-7.18-9.1Zm-56.75,10.19c-4.15,0-8.46-.23-12.86-.79,15.52,20.46,20.31,43.78,21.2,48.78,.11,.64,.16,.98,.16,.98,0,0-.34-.05-.98-.16-5-.89-28.31-5.68-48.78-21.2,3.21,25.48-4.3,48.07-6.03,52.84-.22,.61-.35,.93-.35,.93,0,0-.27-.21-.76-.63-3.87-3.25-21.68-19.07-31.64-42.75-9.97,23.68-27.78,39.5-31.65,42.75-.49,.42-.76,.63-.76,.63,0,0-.13-.32-.35-.93-1.73-4.77-9.24-27.36-6.03-52.84-20.46,15.52-43.78,20.31-48.78,21.2-.64,.11-.98,.16-.98,.16,0,0,.05-.34,.16-.98,.89-5,5.68-28.32,21.2-48.78-4.4,.56-8.71,.79-12.86,.79-19.87,0-36.01-5.38-39.97-6.82-.62-.22-.94-.35-.94-.35,0,0,.21-.27,.63-.76,3.25-3.87,19.07-21.68,42.75-31.65-23.68-9.96-39.5-27.77-42.75-31.64-.42-.49-.63-.76-.63-.76,0,0,.32-.13,.93-.35,3.94-1.43,20.1-6.82,39.98-6.82,4.15,0,8.46,.23,12.86,.79-15.52-20.46-20.31-43.78-21.2-48.78-.11-.64-.16-.98-.16-.98,0,0,.34,.05,.98,.16,5,.89,28.32,5.68,48.78,21.2-3.21-25.48,4.3-48.07,6.03-52.84,.22-.61,.35-.93,.35-.93,0,0,.27,.21,.76,.63,3.87,3.25,21.68,19.07,31.65,42.75,9.96-23.68,27.77-39.5,31.64-42.75,.49-.42,.76-.63,.76-.63,0,0,.13,.32,.35,.93,1.73,4.77,9.24,27.36,6.03,52.84,20.47-15.52,43.78-20.31,48.78-21.2,.64-.11,.98-.16,.98-.16,0,0-.05,.34-.16,.98-.89,5-5.68,28.32-21.2,48.78,4.4-.56,8.71-.79,12.86-.79,19.88,0,36.04,5.39,39.98,6.82,.61,.22,.93,.35,.93,.35,0,0-.21,.27-.63,.76-3.25,3.87-19.07,21.68-42.75,31.64,23.68,9.97,39.5,27.78,42.75,31.65,.42,.49,.63,.76,.63,.76,0,0-.32,.13-.93,.35-3.94,1.43-20.09,6.82-39.98,6.82Z"/>
    </g>
  </g>
</svg>