<?xml version="1.0" encoding="UTF-8"?>
<svg id="Layer_2" data-name="Layer 2" xmlns="http://www.w3.org/2000/svg" viewBox="0 0 84.94 84.94">
  <defs>
    <style>
      .cls-1 {
        fill: #fff;
      }

      .cls-2 {
        fill: #111;
      }
    </style>
  </defs>
  <g id="Layer_1-2" data-name="Layer 1">
    <g>
      <rect class="cls-2" width="84.94" height="84.94"/>
      <g>
        <path class="cls-1" d="M53.17,21.74l-2.05-3.58h-5.78v22.56l1.78,1c.36-.21,3.17-1.83,3.61-2.08l-1.8-1.01v-1.99h0v-6.93h0s0-7.96,0-7.96h4.24Z"/>
        <path class="cls-1" d="M33.3,16.89l5.69-9.86,10.67,6.16c2.34,4.1,5.11,8.97,7.45,13.06l-7,4.14v4.15l11.86-7c-2.96-5.19-6.7-11.76-9.68-16.97L37.69,2.13l-8.51,14.73c.5,0,3.7,.02,4.12,.02Z"/>
        <path class="cls-1" d="M42.39,39.1l1.76-1.04v-4.15l-1.78,1.05c-4.26-2.45-10.32-5.96-14.63-8.45l2.13-3.68-4.12-.02-2.9,5.01c5.06,2.92,14.59,8.42,19.53,11.28Z"/>
        <path class="cls-1" d="M15.73,37.62l-5.69-9.86,10.67-6.16c4.72,.03,10.33,.06,15.04,.08l.08,8.13c.36,.21,3.17,1.83,3.6,2.08l-.14-13.78c-5.89-.04-13.62-.06-19.53-.1L5.15,26.44l8.51,14.73,2.08-3.56Z"/>
        <path class="cls-1" d="M32.99,40.49c-2.92,1.68-8.72,5.03-11.7,6.75l-2.13-3.68c-.25,.44-1.86,3.19-2.08,3.56l2.9,5.01c5.06-2.93,14.59-8.42,19.53-11.28l-.02-2.04-3.6-2.08,.02,2.07c-.71,.41-2.23,1.29-2.93,1.69Z"/>
        <path class="cls-1" d="M24.9,63.2H13.51v-12.32c2.38-4.07,5.21-8.92,7.59-12.98l7.08,3.99c.36-.21,3.17-1.83,3.61-2.08l-12-6.77c-3.02,5.16-6.82,11.68-9.86,16.86v16.87H26.94c-.25-.44-1.83-3.22-2.04-3.58Z"/>
        <path class="cls-1" d="M59.19,62.12l2.9-5.01c-5.06-2.92-14.59-8.42-19.53-11.28l-1.76,1.04v4.16l1.78-1.05c4.26,2.45,10.32,5.96,14.63,8.44l-2.13,3.68,4.12,.02Z"/>
        <path class="cls-1" d="M36.02,55.25v7.95h-4.24l2.04,3.58h5.78v-22.56l-1.77-1c-.37,.22-3.17,1.83-3.61,2.08l1.8,1.01v8.93Z"/>
        <path class="cls-1" d="M51.64,68.05l-5.69,9.86-10.67-6.16c-2.34-4.1-5.11-8.97-7.45-13.06l7-4.13v-4.16l-11.86,7c2.96,5.19,6.7,11.76,9.68,16.97l14.61,8.44,8.51-14.73c-.5,0-3.7-.02-4.12-.02Z"/>
        <path class="cls-1" d="M71.29,43.77l-2.08,3.55,5.7,9.87-10.67,6.15c-4.72-.03-10.33-.06-15.04-.08l-.08-8.12-3.6-2.08,.14,13.77c5.98,.04,13.53,.06,19.53,.1l14.61-8.44-8.51-14.73Z"/>
        <path class="cls-1" d="M51.96,44.45c2.92-1.68,8.72-5.03,11.69-6.75l2.12,3.68c.26-.44,1.87-3.2,2.08-3.56l-2.9-5.01c-5.06,2.92-14.59,8.42-19.53,11.28l.02,2.05,3.6,2.08-.02-2.07c.71-.41,2.23-1.29,2.93-1.69Z"/>
        <path class="cls-1" d="M60.04,21.74h11.39v12.32c-2.37,4.08-5.21,8.91-7.59,12.98l-7.07-3.99-3.61,2.08,11.99,6.76c3.02-5.16,6.82-11.68,9.86-16.86V18.16h-17.01c.25,.43,1.84,3.22,2.04,3.58Z"/>
      </g>
    </g>
  </g>
</svg>