<?xml version="1.0" encoding="UTF-8"?>
<svg id="Layer_2" data-name="Layer 2" xmlns="http://www.w3.org/2000/svg" viewBox="0 0 267.7 42.77">
  <defs>
    <style>
      .cls-1 {
        fill: #fff;
      }
    </style>
  </defs>
  <g id="Layer_2-2" data-name="Layer 2">
    <g id="Layer_1-2" data-name="Layer 1-2">
      <g>
        <path class="cls-1" d="M7.93,34.37h15.98c.54,0,.98,.44,.98,.98v5.62c0,.54-.44,.98-.98,.98H.98c-.54,0-.98-.44-.98-.98V2.7c0-.54,.44-.98,.98-.98H23.62c.54,0,.98,.44,.98,.98v5.62c0,.54-.44,.98-.98,.98H8.91c-.54,0-.98,.44-.98,.98v6.59c0,.54,.44,.98,.98,.98h13.26c.54,0,.98,.44,.98,.98v5.5c0,.54-.44,.98-.98,.98H8.91c-.54,0-.98,.44-.98,.98v8.04h0Z"/>
        <path class="cls-1" d="M46.55,20.35h-5.51c-.54,0-.98,.44-.98,.98v10.97c0,1,.25,1.72,.75,2.18s1.23,.72,2.18,.78c.72,.04,1.57,.05,2.54,.02,.55-.02,1.02,.43,1.02,.98v4.8c0,.51-.39,.94-.9,.98-4.63,.42-7.92-.08-9.88-1.53-2.09-1.53-3.13-4.27-3.13-8.22v-10.97c0-.54-.44-.98-.98-.98h-3.03c-.54,0-.98-.44-.98-.98v-5.16c0-.54,.44-.98,.98-.98h3.03c.54,0,.98-.44,.98-.98v-4.09c0-.43,.28-.82,.7-.94l5.44-1.65c.63-.19,1.27,.28,1.27,.94v5.74c0,.54,.44,.98,.98,.98h4.52c.54,0,.98,.44,.98,.98v6.15h0Z"/>
        <path class="cls-1" d="M67.76,12.41c3.14,0,5.74,1.05,7.79,3.16,2.05,2.11,3.07,5.02,3.07,8.74v16.66c0,.54-.44,.98-.98,.98h-5.44c-.54,0-.98-.44-.98-.98v-15.74c0-1.92-.52-3.38-1.55-4.4-1.03-1.01-2.41-1.52-4.14-1.52-1.92,0-3.45,.59-4.6,1.78-1.15,1.19-1.72,2.97-1.72,5.34v14.54c0,.54-.44,.98-.98,.98h-5.44c-.54,0-.98-.44-.98-.98V2.7c0-.54,.44-.98,.98-.98h5.44c.54,0,.98,.44,.98,.98V13.86c0,.82,.97,1.3,1.59,.77,1.74-1.48,4.07-2.23,6.97-2.23Z"/>
        <path class="cls-1" d="M91.21,30.63c1,3.6,3.7,5.4,8.1,5.4,2.54,0,4.53-.77,5.97-2.31,.3-.32,.8-.37,1.18-.15l4.31,2.49c.53,.31,.65,1.02,.26,1.49-2.81,3.47-6.75,5.21-11.83,5.21-4.75,0-8.56-1.44-11.44-4.31s-4.31-6.49-4.31-10.86,1.42-7.94,4.25-10.83c2.83-2.89,6.47-4.34,10.92-4.34,4.21,0,7.69,1.46,10.43,4.37,2.74,2.91,4.11,6.51,4.11,10.8,0,.7-.05,1.42-.15,2.18-.07,.49-.48,.87-.98,.87h-20.82Zm-.11-5.76h13.35c.67,0,1.17-.67,.94-1.3-.48-1.31-1.23-2.34-2.25-3.07-1.32-.96-2.83-1.44-4.51-1.44-1.99,0-3.64,.51-4.94,1.52-1.3,1.02-2.17,2.44-2.59,4.28h0Z"/>
        <path class="cls-1" d="M125.75,18.16c.69-1.84,1.83-3.22,3.42-4.14,1.29-.75,2.7-1.19,4.23-1.33,.58-.05,1.09,.4,1.09,.98v6.2c0,.54-.44,.99-.98,.98-1.87-.05-3.56,.44-5.08,1.45-1.78,1.19-2.67,3.16-2.67,5.92v12.76c0,.54-.44,.98-.98,.98h-5.44c-.54,0-.98-.44-.98-.98V14.2c0-.54,.44-.98,.98-.98h5.44c.54,0,.98,.44,.98,.98v3.96h-.01Z"/>
        <path class="cls-1" d="M143.97,30.63c1,3.6,3.7,5.4,8.1,5.4,2.54,0,4.53-.77,5.97-2.31,.3-.32,.8-.37,1.18-.15l4.31,2.49c.53,.31,.65,1.02,.26,1.49-2.81,3.47-6.75,5.21-11.83,5.21-4.75,0-8.56-1.44-11.44-4.31s-4.31-6.49-4.31-10.86,1.42-7.94,4.25-10.83c2.83-2.89,6.47-4.34,10.92-4.34,4.21,0,7.69,1.46,10.43,4.37,2.74,2.91,4.11,6.51,4.11,10.8,0,.7-.05,1.42-.15,2.18-.07,.49-.48,.87-.98,.87h-20.82Zm-.11-5.76h13.35c.67,0,1.17-.67,.94-1.3-.48-1.31-1.23-2.34-2.25-3.07-1.32-.96-2.83-1.44-4.51-1.44-1.99,0-3.64,.51-4.94,1.52-1.3,1.02-2.17,2.44-2.59,4.28h0Z"/>
        <path class="cls-1" d="M193.68,13.22h5.44c.54,0,.98,.44,.98,.98v26.77c0,.54-.44,.98-.98,.98h-5.44c-.54,0-.98-.44-.98-.98h0c0-.84-.97-1.28-1.62-.74-2.04,1.69-4.62,2.54-7.75,2.54-4.03,0-7.12-1.47-9.86-4.4s-4.11-6.52-4.11-10.78,1.37-7.84,4.11-10.78c2.74-2.93,6.02-4.4,9.86-4.4,3.12,0,5.71,.85,7.75,2.54,.65,.54,1.62,.1,1.62-.74h0c0-.54,.44-.99,.98-.99Zm-14.66,20.2c1.49,1.51,3.39,2.27,5.69,2.27s4.2-.76,5.72-2.27,2.27-3.46,2.27-5.83-.76-4.32-2.27-5.83c-1.51-1.51-3.42-2.27-5.72-2.27s-4.2,.76-5.69,2.27-2.24,3.46-2.24,5.83,.75,4.32,2.24,5.83Z"/>
        <path class="cls-1" d="M206.84,40.97V.98c0-.54,.44-.98,.98-.98h5.44c.54,0,.98,.44,.98,.98V40.97c0,.54-.44,.98-.98,.98h-5.44c-.54,0-.98-.44-.98-.98Z"/>
        <path class="cls-1" d="M247.59,41.29l-2.1-5.93c-.14-.39-.51-.66-.93-.66h-15.12c-.42,0-.8,.27-.93,.67l-1.96,5.89c-.13,.4-.51,.67-.93,.67h-6.46c-.68,0-1.15-.67-.93-1.31L231.61,2.38c.14-.39,.51-.66,.93-.66h8.44c.42,0,.79,.26,.93,.66l13.5,38.26c.23,.64-.25,1.31-.93,1.31h-5.95c-.42,0-.79-.26-.93-.66Zm-16.27-14h9.93c.68,0,1.15-.67,.93-1.31l-4.39-12.44c-.31-.88-1.56-.87-1.86,.01l-4.61,13.73h0Z"/>
        <path class="cls-1" d="M260.75,1.72h5.96c.54,0,.98,.44,.98,.98V40.97c0,.54-.44,.98-.98,.98h-5.96c-.54,0-.98-.44-.98-.98V2.7c0-.54,.44-.98,.98-.98Z"/>
      </g>
    </g>
  </g>
</svg>