<?xml version="1.0" encoding="UTF-8"?>
<svg id="Layer_2" data-name="Layer 2" xmlns="http://www.w3.org/2000/svg" viewBox="0 0 412.22 95.04">
  <defs>
    <style>
      .cls-1 {
        fill: #7df9ff;
      }
    </style>
  </defs>
  <g id="Layer_1-2" data-name="Layer 1">
    <g>
      <path class="cls-1" d="m38.25,0C17.21-.12,0,17.7,0,38.74v55.51c8-4.41,15.32-9.89,21.71-16.29.17-.17.35-.35.52-.53,6.68-6.78,6.46-17.82,0-24.82-3.53-3.83-5.69-8.94-5.69-14.57,0-12.7,11.03-22.81,24.03-21.33,9.67,1.11,17.5,8.78,18.76,18.43.9,6.89-1.47,13.25-5.77,17.75-6.53,6.82-6.5,17.61.1,24.35.23.24.46.47.7.7,6.39,6.4,13.71,11.88,21.71,16.29v-56.22c0-10.51-4.26-20.01-11.15-26.89C58.09,4.31,48.66.06,38.25,0Z"/>
      <g>
        <path class="cls-1" d="m151.44,65.71c-1.81-1.74-4.15-3.07-7-3.99v-.93c4.63-.23,8.54-1.22,11.74-2.95,3.2-1.74,5.63-4.18,7.29-7.35,1.66-3.16,2.49-6.83,2.49-10.99,0-4.94-1.14-9.12-3.41-12.56-2.28-3.43-5.5-6.05-9.66-7.87-4.17-1.81-9.1-2.72-14.81-2.72h-33.21v77.53h12.38v-29.86h9.14c3.09,0,5.59.33,7.52.98,1.93.66,3.55,1.74,4.86,3.24,1.31,1.51,2.55,3.38,3.7,5.61l10.99,20.02h14.58l-11.69-21.52c-1.47-2.7-3.11-4.92-4.92-6.65Zm-11.86-11.98h-22.33v-26.15h22.33c5.01,0,8.6,1.02,10.76,3.07,2.16,2.05,3.24,5.34,3.24,9.89,0,4.78-1.08,8.18-3.24,10.18-2.16,2.01-5.75,3.01-10.76,3.01Z"/>
        <path class="cls-1" d="m212.72,38.16c-3.93-1.97-8.49-2.95-13.66-2.95-5.71,0-10.65,1.25-14.81,3.76-4.17,2.51-7.39,6-9.66,10.47-2.27,4.48-3.41,9.68-3.41,15.62s1.02,11.15,3.07,15.62c2.04,4.48,5.11,7.99,9.2,10.53,4.09,2.55,9.29,3.82,15.62,3.82,5.25,0,9.78-.81,13.6-2.43,3.82-1.62,6.81-3.88,8.97-6.77,2.16-2.89,3.24-6.31,3.24-10.24v-1.04h-12.38v.92c0,2.55-1,4.59-3.01,6.13-2.01,1.54-5.44,2.31-10.3,2.31-4.16,0-7.46-.65-9.89-1.97-2.43-1.31-4.11-3.3-5.03-5.96-.77-2.22-1.2-4.88-1.33-7.93h41.83c.16-.92.29-2.1.41-3.53.12-1.43.18-2.87.18-4.34,0-5.32-1.12-9.84-3.36-13.54-2.24-3.7-5.32-6.54-9.26-8.5Zm-26.5,12.09c2.24-3.09,6.4-4.63,12.5-4.63,3.39,0,6.25.54,8.56,1.62,2.31,1.08,3.99,2.72,5.03,4.92.93,1.95,1.28,4.44,1.08,7.46h-30.37c.38-3.81,1.43-6.94,3.19-9.37Z"/>
        <path class="cls-1" d="m273.64,38.22c-3.59-2-8.04-3.01-13.37-3.01s-9.55.95-13.36,2.84c-3.82,1.89-6.79,4.51-8.91,7.87-2.12,3.36-3.18,7.16-3.18,11.4v1.16h12.03v-1.74c0-3.86.98-6.58,2.95-8.16,1.97-1.58,5.22-2.37,9.78-2.37s7.85.77,9.89,2.31c2.04,1.55,3.07,4.48,3.07,8.8v3.17l-20.14,2.85c-4.01.62-7.46,1.6-10.36,2.95-2.89,1.35-5.08,3.12-6.54,5.32-1.47,2.2-2.2,4.88-2.2,8.04,0,5.01,1.74,8.83,5.21,11.46,3.47,2.62,7.83,3.93,13.08,3.93,3.55,0,6.67-.48,9.37-1.45,2.7-.96,5.01-2.22,6.94-3.76,1.93-1.54,3.43-3.2,4.51-4.97l.46.03v8.99h11.57v-34.95c0-4.78-.91-8.93-2.72-12.44-1.81-3.51-4.51-6.26-8.1-8.27Zm-3.59,41.08c-1.66,2.16-3.8,3.69-6.42,4.57-2.63.89-5.32,1.33-8.1,1.33-3.63,0-6.23-.52-7.81-1.56-1.58-1.04-2.37-2.68-2.37-4.92s.65-3.7,1.97-4.63c1.31-.92,3.63-1.66,6.95-2.2l18.28-2.5v.88c0,3.86-.83,6.87-2.49,9.03Z"/>
        <rect class="cls-1" x="296.38" y="16.35" width="12.5" height="77.53"/>
        <path class="cls-1" d="m346.26,16.35l-30.09,77.53h12.96l7.96-20.25h35.82l7.96,20.25h13.54l-30.2-77.53h-17.94Zm-4.81,46.17l8.05-20.49,5.09-14.35h.93l4.98,14.35,8.05,20.49h-27.09Z"/>
        <rect class="cls-1" x="399.84" y="16.35" width="12.38" height="77.53"/>
      </g>
    </g>
  </g>
</svg>